<svg width="76" height="77" viewBox="0 0 76 77" fill="none" xmlns="http://www.w3.org/2000/svg">
<g clip-path="url(#clip0)">
<path d="M76 38.0722C76 17.0831 58.9891 0.0722046 38 0.0722046C17.0109 0.0722046 0 17.0831 0 38.0722C0 59.0613 17.0109 76.0722 38 76.0722C38.2227 76.0722 38.4453 76.0722 38.668 76.0574V46.4886H30.5039V36.9738H38.668V29.9675C38.668 21.848 43.6258 17.4245 50.8695 17.4245C54.343 17.4245 57.3266 17.6769 58.1875 17.7956V26.2863H53.2C49.2664 26.2863 48.4945 28.1566 48.4945 30.9027V36.9589H57.9203L56.6883 46.4738H48.4945V74.6027C64.3773 70.0456 76 55.4245 76 38.0722Z" fill="white"/>
</g>
<defs>
<clipPath id="clip0">
<rect width="76" height="76" fill="white" transform="translate(0 0.0722046)"/>
</clipPath>
</defs>
</svg>
