<svg width="76" height="77" viewBox="0 0 76 77" fill="none" xmlns="http://www.w3.org/2000/svg">
<g clip-path="url(#clip0)">
<path d="M50.3784 38.4617L75.9999 54.6592V21.5802L50.3784 38.4617Z" fill="white"/>
<path d="M0 21.5802V54.6592L25.6215 38.4617L0 21.5802Z" fill="white"/>
<path d="M71.2501 11.9472H4.75008C2.37983 11.9472 0.498828 13.7142 0.142578 15.9895L38.0001 40.9317L75.8576 15.9895C75.5013 13.7142 73.6203 11.9472 71.2501 11.9472Z" fill="white"/>
<path d="M46.0274 41.3307L39.3061 45.7577C38.9071 46.0189 38.4559 46.1472 37.9999 46.1472C37.5439 46.1472 37.0926 46.0189 36.6936 45.7577L29.9724 41.3259L0.151855 60.1882C0.517605 62.4444 2.38911 64.1972 4.74986 64.1972H71.2499C73.6106 64.1972 75.4821 62.4444 75.8479 60.1882L46.0274 41.3307Z" fill="white"/>
</g>
<defs>
<clipPath id="clip0">
<rect width="76" height="76" fill="white" transform="translate(0 0.0722046)"/>
</clipPath>
</defs>
</svg>
